<?xml version="1.0" standalone="no"?>
<!DOCTYPE svg PUBLIC "-//W3C//DTD SVG 1.1//EN" "http://www.w3.org/Graphics/SVG/1.1/DTD/svg11.dtd" >
<!--
2013-9-30: Created.
-->
<svg>
<metadata>
Created by iconfont
</metadata>
<defs>

<font id="iconfont" horiz-adv-x="1024" >
  <font-face
    font-family="iconfont"
    font-weight="500"
    font-stretch="normal"
    units-per-em="1024"
    ascent="896"
    descent="-128"
  />
    <missing-glyph />
    
    <glyph glyph-name="xiangyou" unicode="&#58982;" d="M320 665.2 361.4 704 704 384 361.4 64 320 102.6 621 384Z"  horiz-adv-x="1024" />

    
    <glyph glyph-name="icon2-copy" unicode="&#58884;" d="M641.685 231.362h-364.464c-7.652 0-14.030-2.55-19.133-7.651-5.102-5.103-7.653-11.318-7.653-18.644s2.55-13.703 7.653-19.132 11.481-8.143 19.133-8.143l-0.029-0.002h364.464c5.102 0 9.571 1.277 13.405 3.827 3.84 2.55 6.867 5.901 9.094 10.042 2.221 4.144 3.333 8.45 3.333 12.919 0.001 7.651-2.387 14.031-7.162 19.134-4.778 5.1-10.992 7.651-18.643 7.651zM641.685 392.075l-364.555-0.030c-7.652 0-14.031-2.55-19.133-7.653-5.102-5.102-7.652-11.479-7.652-19.133 0-4.468 1.277-8.775 3.828-12.917 2.55-4.145 5.745-7.491 9.58-10.042 3.837-2.55 8.306-3.827 13.408-3.827h364.463c3.818 0 7.327 0.797 10.531 2.388s5.919 3.509 8.142 5.754c2.225 2.245 3.981 4.961 5.266 8.144 1.285 3.181 1.927 6.693 1.927 10.53 0.001 7.652-2.387 14.031-7.162 19.133-4.777 5.101-10.991 7.652-18.642 7.652zM641.685 552.784h-364.464c-7.652-0.001-14.030-2.55-19.133-7.653-5.102-5.101-7.653-11.314-7.653-18.641 0-7.327 2.55-13.705 7.653-19.132 5.102-5.429 11.481-8.143 19.133-8.143h364.464c7.652-0.001 13.868 2.714 18.642 8.143 4.775 5.429 7.162 11.806 7.162 19.132 0.001 7.327-2.387 13.539-7.162 18.641-4.777 5.104-10.991 7.653-18.642 7.653zM413.994 668.069c2.533-2.246 5.398-4.163 8.604-5.755 3.203-1.591 6.398-2.387 9.581-2.387h209.506c7.652 0 13.869 2.713 18.642 8.142 4.777 5.429 7.162 11.807 7.163 19.133 0 7.326-2.388 13.539-7.163 18.642-4.777 5.102-10.989 7.652-18.642 7.652l-209.535 0.030c-1.917 0-4.469-0.315-7.652-0.948-12.123-3.837-18.182-12.448-18.182-25.836-0.020-3.838 0.62-7.348 1.927-10.53s3.225-5.9 5.754-8.144zM871.212 681.016c-2.55 6.388-6.213 11.969-10.989 16.745-4.775 4.777-10.357 8.603-16.745 11.481-6.388 2.878-13.084 4.315-20.082 4.316l0.031-0.059h-51.674v53.57c0 14.674-5.102 27.265-15.305 37.774-10.205 10.51-22.325 15.775-36.367 15.796h-519.451c-14.041 0-26.163-5.264-36.367-15.796s-15.306-23.122-15.306-37.774v-642.846c0-14.675 5.102-27.266 15.306-37.773 10.203-10.51 22.325-15.777 36.367-15.797h52.62v-53.571c0-14.675 4.939-27.263 14.817-37.773 9.877-10.51 22.151-15.775 36.826-15.797h518.502c7.020 0 13.711 1.439 20.082 4.316 6.366 2.88 11.948 6.706 16.745 11.479 4.797 4.777 8.461 10.519 10.989 17.235 2.531 6.715 3.807 13.571 3.827 20.571v642.845c0 7.652-1.273 14.674-3.827 21.061zM200.050 121.12v0l-0.001 651.949h524.541v-651.949h-524.54zM823.427 17.080v0h-518.501v53.571h415.186c8.939 0 17.388 2.388 25.347 7.163s14.336 11.316 19.132 19.621c4.796 8.307 7.184 17.235 7.162 26.788v535.703h51.675v-642.847z"  horiz-adv-x="1024" />

    
    <glyph glyph-name="zhuye" unicode="&#59015;" d="M512 768 128 352l160 0L288 0 448 0l0 172.8c0 38.4 32 64 64 64 38.4 0 64-32 64-64L576 0l160 0L736 352 896 352 512 768zM704 377.6l0-345.6L601.6 32l0 153.6c0 32-25.6 83.2-89.6 83.2-51.2 0-89.6-51.2-89.6-83.2l0-153.6L320 32 320 377.6 192 377.6l320 345.6 320-345.6L704 377.6z"  horiz-adv-x="1024" />

    
    <glyph glyph-name="fenxiang" unicode="&#58998;" d="M508.026502-63.293279c-77.657684 0-154.280806 20.361747-223.329415 60.225663-103.712083 59.84704-177.86085 156.490124-208.862935 272.118608C44.831045 384.690732 60.736293 505.482819 120.57003 609.169319c59.859319 103.686501 156.502403 177.86085 272.130887 208.862935 71.194482 19.061125 146.530284 20.360723 217.774909 3.673669 10.426467-2.448772 16.889669-12.875239 14.46648-23.302729-2.423189-10.426467-12.950963-16.877389-23.302729-14.46648-65.085344 15.223726-133.856637 14.049994-198.890816-3.370771C297.119001 752.266411 208.832236 684.505122 154.147776 589.793016c-54.658877-94.724385-69.175499-205.063399-40.848337-310.694181 28.30158-105.630782 96.062869-193.917548 190.787254-248.588705 94.698802-54.645574 204.975395-69.213361 310.681902-40.86164 105.630782 28.313859 193.917548 96.062869 248.576425 190.787254 54.683437 94.712105 69.200058 205.051119 40.873919 310.681902-2.777253 10.350742 3.357468 20.979824 13.709233 23.757077 10.653641 2.713808 21.005406-3.39533 23.757077-13.709233 31.002085-115.640764 15.096836-236.432851-44.7369-340.119351-59.859319-103.686501-156.502403-177.86085-272.130887-208.862935C586.189699-58.168562 546.981722-63.293279 508.026502-63.293279zM845.545632 704.827983 729.816864 704.827983c-10.704806 0-19.389606 8.6848-19.389606 19.389606 0 10.704806 8.6848 19.389606 19.389606 19.389606l115.729791 0c10.704806 0 19.389606-8.6848 19.389606-19.389606C864.935238 713.512782 856.250438 704.827983 845.545632 704.827983zM845.545632 589.111494c-10.704806 0-19.389606 8.6848-19.389606 19.389606L826.156026 724.217588c0 10.704806 8.6848 19.389606 19.389606 19.389606s19.389606-8.6848 19.389606-19.389606l0-115.716488C864.935238 597.796294 856.250438 589.111494 845.545632 589.111494zM508.759189 365.718635c-4.973268 0-9.921977 1.893116-13.709233 5.680373-7.573489 7.573489-7.573489 19.843954 0 27.417443l275.488355 275.488355c7.573489 7.573489 19.843954 7.573489 27.417443 0 7.573489-7.573489 7.573489-19.843954 0-27.417443L522.467399 371.399007C518.681166 367.611751 513.732457 365.718635 508.759189 365.718635z"  horiz-adv-x="1024" />

    
    <glyph glyph-name="iconfanhui" unicode="&#58915;" d="M268 384l402.4 402.4c12.8 12.8 12.8 34.4 0 47.2-12.8 12.8-34.4 12.8-47.2 0L197.6 408c-12.8-12.8-12.8-34.4 0-47.2l425.6-425.6c12.8-12.8 34.4-12.8 47.2 0l0 0c12.8 12.8 12.8 34.4 0 47.2L268 384z"  horiz-adv-x="1024" />

    
    <glyph glyph-name="icongengduo" unicode="&#58917;" d="M174.4 384m-61.6 0a7.7 7.7 0 1 0 123.2 0 7.7 7.7 0 1 0-123.2 0ZM512 384m-61.6 0a7.7 7.7 0 1 0 123.2 0 7.7 7.7 0 1 0-123.2 0ZM849.6 384m-61.6 0a7.7 7.7 0 1 0 123.2 0 7.7 7.7 0 1 0-123.2 0Z"  horiz-adv-x="1024" />

    
    <glyph glyph-name="shaixuan" unicode="&#58949;" d="M892.928 744.448c-4.096 8.192-12.288 12.288-20.48 12.288L147.456 756.736c-8.192 0-16.384-4.096-20.48-12.288-4.096-8.192 0-16.384 4.096-20.48L405.504 445.44c4.096-4.096 4.096-8.192 4.096-12.288l0-339.968c0-8.192 4.096-12.288 8.192-16.384l65.536-49.152c8.192-8.192 20.48-4.096 28.672 4.096 8.192 8.192 4.096 20.48-4.096 28.672l-57.344 40.96 0 331.776c0 16.384-4.096 28.672-16.384 40.96L196.608 715.776l626.688 0-233.472-241.664c-12.288-12.288-16.384-24.576-16.384-40.96l0-454.656c0-12.288 8.192-20.48 20.48-20.48s20.48 8.192 20.48 20.48L614.4 433.152c0 4.096 0 8.192 4.096 12.288l270.336 278.528C897.024 728.064 897.024 736.256 892.928 744.448z"  horiz-adv-x="1024" />

    
    <glyph glyph-name="gengduo" unicode="&#59247;" d="M201.109344 467.779102c-28.102035 17.182334-62.726623 17.182334-90.831728 0C82.175581 450.589604 64.86124 418.837436 64.86124 384.454348c0-34.373879 17.314341-66.144466 45.416376-83.3268 28.105105-17.189498 62.72867-17.189498 90.831728 0 28.105105 17.182334 45.416376 48.952922 45.416376 83.3268C246.52572 418.837436 229.213425 450.589604 201.109344 467.779102zM556.503587 467.772962c-28.099988 17.189498-62.726623 17.189498-90.831728 0-28.102035-17.182334-45.416376-48.941666-45.416376-83.330894 0-53.126988 40.670282-96.195899 90.833775-96.195899s90.831728 43.068911 90.831728 96.195899C601.919962 418.831296 584.607668 450.589604 556.503587 467.772962zM867.448478 480.662527c-50.163493 0-90.831728-43.080168-90.831728-96.220459 0-53.126988 40.668235-96.195899 90.831728-96.195899 50.16554 0 90.831728 43.068911 90.831728 96.195899C958.279183 437.581336 917.614018 480.662527 867.448478 480.662527z"  horiz-adv-x="1024" />

    
    <glyph glyph-name="shiming" unicode="&#58902;" d="M128.9 676.3c0 49.1 39.8 89 89 89h592.7c49.1 0 89-39.8 89-89v-592.7c0-49.1-39.8-89-89-89H217.9c-49.1 0-89 39.8-89 89V676.3z m-29.6 0v-592.7c0-65.5 53.1-118.7 118.7-118.7h592.7c65.5 0 118.7 53.1 118.7 118.7V676.3c0 65.5-53.1 118.7-118.7 118.7H217.9c-65.5-0.1-118.6-53.2-118.6-118.7z m88.9-74H455c8.2 0 14.8 6.6 14.8 14.8 0 8.2-6.6 14.8-14.8 14.8H188.2c-8.2 0-14.8-6.6-14.8-14.8-0.1-8.3 6.6-14.8 14.8-14.8z m0-489.3H455c8.2 0 14.8 6.6 14.8 14.8s-6.6 14.8-14.8 14.8H188.2c-8.2 0-14.8-6.6-14.8-14.8-0.1-8.1 6.6-14.8 14.8-14.8z m0 244.7H455c8.2 0 14.8 6.6 14.8 14.8 0 8.2-6.6 14.8-14.8 14.8H188.2c-8.2 0-14.8-6.6-14.8-14.8-0.1-8.2 6.6-14.8 14.8-14.8z m504 81.4c73.7 0 133.4 59.7 133.4 133.4S765.9 706 692.2 706s-133.4-59.7-133.4-133.4 59.7-133.5 133.4-133.5z m0 29.7c-57.3 0-103.7 46.4-103.7 103.7 0 57.3 46.4 103.7 103.7 103.7s103.7-46.4 103.7-103.7c0-57.3-46.4-103.7-103.7-103.7z m207.5-237.2c0 114.6-92.9 207.5-207.5 207.5s-207.5-92.9-207.5-207.5c0-8.2 6.6-14.8 14.8-14.8 8.2 0 14.8 6.6 14.8 14.8 0 98.2 79.7 177.9 177.9 177.9S870 329.8 870 231.6c0-8.2 6.6-14.8 14.8-14.8 8.2 0 14.9 6.6 14.9 14.8zM546.1 112.1l130.9-103c6.7-5.3 16.5-3.8 21.4 3.2l157.3 225.5c4.7 6.7 3 16-3.7 20.7-6.7 4.7-16 3-20.7-3.7L673.9 29.2l21.4 3.2-130.9 103c-6.4 5.1-15.8 4-20.9-2.5-4.9-6.4-3.8-15.7 2.6-20.8zM810.7-41.1H217.9c-68.8 0-124.7 55.9-124.7 124.7V676.3c0.1 68.7 56 124.6 124.7 124.7h592.7c68.8 0 124.7-55.9 124.7-124.7v-592.7c0.1-68.8-55.9-124.7-124.6-124.7zM217.9 789c-62.1-0.1-112.7-50.6-112.7-112.7v-592.7c0-62.1 50.6-112.7 112.7-112.7h592.7c62.1 0 112.7 50.6 112.7 112.7V676.3c0 62.1-50.6 112.7-112.7 112.7H217.9z m592.8-800.5H217.9c-52.4 0-95 42.6-95 95V676.3c0 52.4 42.6 95 95 95h592.7c52.4 0 95-42.6 95-95v-592.7c0.1-52.4-42.5-95.1-94.9-95.1z m-119.7 12h119.7c45.8 0 83 37.3 83 83V212.8c-2.7-1.3-5.8-2-9-2-11.5 0-20.8 9.3-20.8 20.8 0 3.3-0.1 6.6-0.3 9.8-0.6-2.5-1.7-4.9-3.2-7.1L703.2 8.9c-2.9-4.2-7.3-7.2-12.2-8.4zM217.9 759.4c-45.8 0-83-37.3-83-83v-592.7c0-45.8 37.3-83 83-83H681c-2.8 0.7-5.5 2-7.9 3.9l-130.9 103c-9 7.1-10.5 20.2-3.5 29.2 4 5.1 10 8 16.4 8 4.7 0 9.3-1.6 12.9-4.5L681.5 51l144.7 207.5c3.9 5.6 10.3 8.9 17.2 8.9 4.3 0 8.4-1.3 11.9-3.7 3.1-2.2 5.5-5.1 7.1-8.5C851 338.7 779 403.5 692.1 403.5c-94.8 0-171.9-77.1-171.9-171.9 0-11.5-9.3-20.8-20.8-20.8s-20.8 9.3-20.8 20.8c0 102.5 72.5 188.3 168.9 208.8-55 18.6-94.8 70.8-94.8 132.1 0 76.8 62.5 139.4 139.4 139.4s139.4-62.6 139.4-139.5c0-61.3-39.7-113.4-94.8-132 73.1-15.6 132.5-68.8 156.9-138.2V676.3c0 45.8-37.3 83-83 83H217.9z m451.7-736.9l11-8.6c1.6-1.2 3.4-1.9 5.4-1.9 2.9 0 5.6 1.4 7.3 3.8l8 11.5-31.7-4.8zM555.3 132.6c-2.7 0-5.3-1.2-7-3.4-3-3.8-2.3-9.3 1.5-12.4l114.9-90.4 10.1 14.5-114.1 89.8c-1.6 1.2-3.4 1.9-5.4 1.9z m135.8-89.3l13.9-10.9 145.7 208.9c1.3 1.9 1.9 4.3 1.4 6.6-0.4 2.3-1.7 4.4-3.7 5.7-1.5 1-3.2 1.6-5 1.6-2.9 0-5.7-1.4-7.3-3.8l-145-208.1z m1 372.2C793.5 415.5 876 333 876 231.6c0-4.8 3.9-8.8 8.8-8.8s9 3.9 9 8.8c0 111.1-90.4 201.5-201.5 201.5s-201.5-90.4-201.5-201.5c0-4.8 3.9-8.8 8.8-8.8s8.8 3.9 8.8 8.8c-0.2 101.4 82.3 183.9 183.7 183.9z m0.1 284.5c-70.2 0-127.4-57.1-127.4-127.4 0-70.3 57.1-127.5 127.4-127.5 70.2 0 127.4 57.1 127.4 127.4-0.1 70.3-57.2 127.5-127.4 127.5zM455 107H188.2c-5.6 0-10.9 2.2-14.8 6.2-3.9 4-6 9.2-5.9 14.6 0 11.4 9.3 20.7 20.8 20.7H455c11.5 0 20.8-9.3 20.8-20.8S466.5 107 455 107z m-266.8 29.6c-4.8 0-8.8-3.9-8.8-8.8 0-2.3 0.9-4.5 2.5-6.1 1.7-1.7 3.9-2.6 6.3-2.6H455c4.8 0 8.8 3.9 8.8 8.8s-3.9 8.8-8.8 8.8H188.2zM455 351.7H188.2c-5.6 0-10.9 2.2-14.8 6.2-3.9 3.9-6 9.1-5.9 14.7 0 11.4 9.3 20.7 20.8 20.7H455c11.5 0 20.8-9.3 20.8-20.8s-9.3-20.8-20.8-20.8z m-266.8 29.5c-4.8 0-8.8-3.9-8.8-8.8 0-2.4 0.8-4.5 2.5-6.2 1.7-1.7 3.9-2.6 6.3-2.6H455c4.8 0 8.8 3.9 8.8 8.8s-3.9 8.8-8.8 8.8H188.2z m504 81.6c-60.5 0-109.7 49.2-109.7 109.7s49.2 109.7 109.7 109.7S801.9 633 801.9 572.5s-49.2-109.7-109.7-109.7z m0 207.4c-53.9 0-97.7-43.8-97.7-97.7 0-53.9 43.8-97.7 97.7-97.7s97.7 43.8 97.7 97.7c0 53.9-43.8 97.7-97.7 97.7zM455 596.3H188.2c-5.6 0-10.9 2.2-14.8 6.2-3.9 3.9-6 9.1-5.9 14.7 0 11.4 9.3 20.7 20.8 20.7H455c11.5 0 20.8-9.3 20.8-20.8s-9.3-20.8-20.8-20.8z m-266.8 29.5c-4.8 0-8.8-3.9-8.8-8.8 0-2.4 0.8-4.5 2.5-6.2 1.7-1.7 3.9-2.6 6.3-2.6H455c4.8 0 8.8 3.9 8.8 8.8s-3.9 8.8-8.8 8.8H188.2z"  horiz-adv-x="1024" />

    
    <glyph glyph-name="shezhi" unicode="&#58930;" d="M841.6 451.2l-3.2 12.8h-49.6c-6.4 20.8-14.4 40-24 59.2l35.2 35.2-8 11.2c-12.8 19.2-27.2 35.2-43.2 51.2s-33.6 30.4-51.2 43.2l-11.2 8-35.2-35.2c-19.2 9.6-38.4 19.2-59.2 24v49.6l-12.8 3.2c-43.2 8-89.6 8-134.4 0l-12.8-3.2v-49.6c-20.8-6.4-40-14.4-59.2-24l-35.2 35.2-11.2-8c-19.2-12.8-35.2-27.2-51.2-43.2s-30.4-33.6-43.2-51.2l-8-11.2 35.2-35.2c-9.6-19.2-19.2-38.4-24-59.2h-49.6l-3.2-12.8c-4.8-22.4-6.4-44.8-6.4-67.2s1.6-44.8 6.4-67.2l3.2-12.8h49.6c6.4-20.8 14.4-40 24-59.2l-35.2-35.2 8-11.2c12.8-19.2 27.2-35.2 43.2-51.2s33.6-30.4 51.2-43.2l11.2-8 35.2 35.2c19.2-9.6 38.4-19.2 59.2-24v-49.6l12.8-3.2c22.4-4.8 44.8-6.4 67.2-6.4 22.4 0 44.8 1.6 67.2 6.4l12.8 3.2v49.6c20.8 6.4 40 14.4 59.2 24l35.2-35.2 11.2 8c19.2 12.8 35.2 27.2 51.2 43.2s30.4 33.6 43.2 51.2l8 11.2-35.2 35.2c9.6 19.2 19.2 38.4 24 59.2h49.6l3.2 12.8c4.8 22.4 6.4 44.8 6.4 67.2 0 22.4-1.6 44.8-6.4 67.2z m-28.8-115.2h-48l-3.2-12.8c-6.4-25.6-16-49.6-30.4-73.6l-6.4-11.2 33.6-33.6a351.616 351.616 0 0 0-68.8-68.8l-33.6 33.6-11.2-6.4c-22.4-14.4-48-24-73.6-30.4l-12.8-3.2v-48c-32-4.8-64-4.8-96 0v48l-12.8 3.2c-25.6 6.4-49.6 16-73.6 30.4l-11.2 6.4-33.6-33.6a351.616 351.616 0 0 0-68.8 68.8l33.6 33.6-6.4 11.2c-14.4 22.4-24 48-30.4 73.6l-3.2 12.8h-48c-1.6 16-3.2 32-3.2 48s1.6 32 3.2 48h48l3.2 12.8c6.4 25.6 16 51.2 30.4 73.6l6.4 11.2-33.6 33.6a351.616 351.616 0 0 0 68.8 68.8l33.6-33.6 11.2 6.4c22.4 14.4 48 24 73.6 30.4l12.8 3.2v48c32 4.8 64 4.8 96 0v-48l12.8-3.2c25.6-6.4 51.2-16 73.6-30.4l11.2-6.4 33.6 33.6a351.616 351.616 0 0 0 68.8-68.8l-33.6-33.6 6.4-11.2c14.4-22.4 24-48 30.4-73.6l3.2-12.8h48c1.6-16 3.2-32 3.2-48s-1.6-32-3.2-48zM512 544c-88 0-160-72-160-160s72-160 160-160 160 72 160 160-72 160-160 160z m0-288c-70.4 0-128 57.6-128 128s57.6 128 128 128 128-57.6 128-128-57.6-128-128-128z"  horiz-adv-x="1024" />

    
    <glyph glyph-name="yijianfankui" unicode="&#58887;" d="M848 768H176c-26.508 0-48-24.54-48-54.808V218.64c0-30.267 21.493-54.807 48-54.807h95.648v-136.431c0-11.052 5.812-21.006 14.718-25.263 3-1.445 6.164-2.141 9.282-2.141 6.188 0 12.257 2.729 16.828 7.868L451.25 163.834H848c26.508 0 48 24.54 48 54.807V713.192C896 743.46 874.508 768 848 768z m0-549.359H431.586L319.649 92.836V218.641H176V713.192h672v-494.551zM296 479.057h432c13.254 0 24 12.27 24 27.404 0 15.133-10.746 27.404-24 27.404H296c-13.254 0-24-12.271-24-27.404 0-15.134 10.746-27.404 24-27.404z m0-109.616h288c13.254 0 24 12.271 24 27.404s-10.746 27.403-24 27.403H296c-13.254 0-24-12.27-24-27.403s10.746-27.404 24-27.404z"  horiz-adv-x="1024" />

    
    <glyph glyph-name="loading" unicode="&#58880;" d="M531.21611786 561.8302002a96.4050293 96.4050293 0 1 0 96.4050293 96.40502929 96.62750244 96.62750244 0 0 0-96.40502929-96.4050293zM325.89194488 485.24382019a88.11790466 88.11790466 0 1 0 88.11790467 88.11790466 88.24768067 88.24768067 0 0 0-88.11790466-88.11790466zM238.77516937 285.92642212a77.75436401 77.75436401 0 1 0 77.75436401 77.6802063A77.86560059 77.86560059 0 0 0 238.77516937 285.92642212z m87.13531495-197.31513977a65.88912964 65.88912964 0 1 0 65.88912964 65.88912963A66.01890564 66.01890564 0 0 0 325.91048431 88.61128235000001zM531.21611786 13.211425780000013a57.47222901 57.47222901 0 1 0 57.472229 57.47222901 57.47222901 57.47222901 0 0 0-57.47222899-57.47222901z m208.34609985 97.14660645a46.47834778 46.47834778 0 1 0 46.47834779 46.47834777 46.60812378 46.60812378 0 0 0-46.47834778-46.47834778z m85.28137208 214.87197876a38.11706543 38.11706543 0 1 0 38.13560485 38.11706542 38.098526 38.098526 0 0 0-38.11706542-38.11706542z m-114.94445802 245.29518127a29.66308594 29.66308594 0 1 0 8.69499207-20.89393616 29.34791565 29.34791565 0 0 0-8.69499206 20.89393616z"  horiz-adv-x="1024" />

    
    <glyph glyph-name="xiangxia" unicode="&#60191;" d="M510.4 286.4a32 32 0 0 0-22.72 9.28l-160 160a32 32 0 0 0 45.12 45.12l137.28-137.28 137.28 137.28a32 32 0 1 0 45.12-45.12l-160-160a32 32 0 0 0-22.08-9.28z"  horiz-adv-x="1024" />

    
    <glyph glyph-name="wodeqiabao" unicode="&#58980;" d="M859.6-49.6H164.4c-54.8 0-99.2 44.4-99.2 99.2V521.2c0 36.8 20 68.4 50 85.6v0.4c-3.6 12.8 683.6 210.4 683.6 210.4 28.4 0 38-26.4 36-48.4V620h24.8c54.8 0 99.2-44.4 99.2-99.2V49.6c0-54.8-44.4-99.2-99.2-99.2M780.8 756L321.2 620h459.6V762.4 756z m122.4-433.2h-167.6v-99.2h167.6v99.2z m0.4-153.6h-173.2c-27.2 0-48.8 22-48.8 48.8v109.6c0 27.2 21.6 48.8 48.8 48.8h173.2V517.6c0 27.2-22 48.8-48.8 48.8H169.6c-27.2 0-48.8-22-48.8-48.8v-464.8c0-27.2 22-48.8 48.8-48.8h684.8c27.2 0 48.8 22 48.8 48.8v122.4l0.4-6z"  horiz-adv-x="1024" />

    
    <glyph glyph-name="piaojia_" unicode="&#58903;" d="M613.047 340.846a36.571 36.571 0 1 0-73.143 0V640H146.286v-114.213a160.366 160.366 0 0 0 111.762-153.051 160.366 160.366 0 0 0-111.762-153.051V128h731.428v91.685a160.366 160.366 0 0 0-111.762 153.051 160.366 160.366 0 0 0 111.762 153.051V640H613.047v-299.154zM601.38 713.143h312.905a36.571 36.571 0 0 0 36.571-36.572v-180.553a36.571 36.571 0 0 0-33.28-36.425 86.894 86.894 0 0 1-78.482-86.857c0-45.239 34.304-82.834 78.482-86.857a36.571 36.571 0 0 0 33.28-36.425v-158.025a36.571 36.571 0 0 0-36.571-36.572H109.714a36.571 36.571 0 0 0-36.571 36.572V249.454a36.571 36.571 0 0 0 33.28 36.425 86.894 86.894 0 0 1 78.482 86.857 86.894 86.894 0 0 1-78.482 86.857 36.571 36.571 0 0 0-33.28 36.425V676.571a36.571 36.571 0 0 0 36.571 36.572h466.761c4.389 0 8.558-0.768 12.435-2.194a36.498 36.498 0 0 0 12.47 2.194z"  horiz-adv-x="1024" />

    
    <glyph glyph-name="yingyuan" unicode="&#58997;" d="M809.654857 14.226286h-566.857143a27.574857 27.574857 0 0 0-27.428571 27.721143c0 15.36 12.251429 27.757714 27.428571 27.757714h566.857143c15.140571 0 27.428571-12.434286 27.428572-27.757714s-12.288-27.721143-27.428572-27.721143zM240.969143 698.294857c-24.210286 0-43.885714-19.894857-43.885714-44.361143v-429.238857L333.897143 435.2a27.355429 27.355429 0 0 0 22.308571 12.507429 26.112 26.112 0 0 0 22.857143-11.52c1.792-2.450286 47.689143-63.488 144.164572-63.488 97.974857 0 149.796571 69.12 150.308571 69.814857 5.339429 7.314286 13.714286 11.702857 22.930286 11.154285a27.355429 27.355429 0 0 0 22.162285-12.690285l136.704-214.710857V654.043429c0 24.393143-19.638857 44.251429-43.776 44.251428H240.969143z m641.828571-594.066286a27.355429 27.355429 0 0 0-23.04 12.726858l-168.484571 264.594285a250.331429 250.331429 0 0 0-168.009143-64.292571c-79.616 0-133.12 33.353143-162.230857 58.697143l-168.448-259.218286a27.282286 27.282286 0 0 0-30.793143-11.337143 27.684571 27.684571 0 0 0-19.565714 26.587429V653.897143c0 55.076571 44.251429 99.84 98.742857 99.84h570.624c54.381714 0 98.633143-44.726857 98.633143-99.730286v-522.057143a27.648 27.648 0 0 0-27.428572-27.757714z"  horiz-adv-x="1024" />

    
    <glyph glyph-name="kefubangzhu" unicode="&#59698;" d="M73.216 475.136c-13.824 0-26.624-5.632-36.352-15.36s-15.36-23.04-14.848-36.864v-232.448c0-28.672 23.04-51.712 51.712-51.712h129.024c28.672 0 51.712 23.04 51.712 51.712V423.424c0 28.672-23.04 51.712-51.712 51.712h-25.6c1.536 185.344 151.552 335.872 335.872 335.872s334.336-150.528 335.872-335.872h-25.6c-28.672 0-51.712-23.04-51.712-51.712v-232.448c0-19.968 11.264-36.864 27.648-45.568-48.64-79.36-127.488-135.68-218.624-154.112-16.384 26.112-52.224 44.544-93.184 44.544C430.08 35.84 384 1.024 384-41.984s46.592-77.824 103.424-77.824c32.768 0 61.952 11.776 80.896 29.696 139.264 18.432 256.512 107.008 315.904 228.864h68.608c28.672 0 51.712 23.04 51.712 51.712V423.424c0 28.672-23.04 51.712-51.712 51.712H926.72c-1.024 228.352-185.856 413.696-413.184 413.696s-413.184-185.344-414.72-413.696h-25.6z m852.48-258.56h-77.824V397.312h77.824v-180.736zM98.816 397.312h77.824v-180.736H98.816V397.312z"  horiz-adv-x="1024" />

    
    <glyph glyph-name="wode" unicode="&#59287;" d="M511.5 332a221.51 221.51 0 1 0 156.62 64.88A220 220 0 0 0 511.5 332z m0 379C424.65 711 354 640.35 354 553.5S424.65 396 511.5 396 669 466.65 669 553.5 598.35 711 511.5 711zM918.09-16a32 32 0 0 0-31.58 27.1C858.17 194 697 332 511.5 332s-346.67-138-375-320.9a32 32 0 0 0-63.24 9.8 443.57 443.57 0 0 0 876.5 0 32 32 0 0 0-31.67-36.9zM918-16H105a32 32 0 0 0 0 64h813a32 32 0 0 0 0-64z"  horiz-adv-x="1024" />

    
    <glyph glyph-name="qiehuanlie" unicode="&#58899;" d="M64 704h896v-76.8H64V704z m0-281.6h896v-76.8H64V422.4z m0-281.6h896V64H64v76.8z"  horiz-adv-x="1024" />

    
    <glyph glyph-name="dingwei" unicode="&#58882;" d="M285.605241 673.751927c124.714746 124.714746 327.576071 124.714746 452.190885 0 124.714746-124.714746 124.714746-327.576071 0-452.190885L541.830087 25.495072c-16.58866-16.58866-43.670147-16.58866-60.258808 0L285.605241 221.461111c-124.714746 124.714746-124.714746 327.576071 0 452.290816m-30.17937 30.079438c-141.503269-141.503269-141.503269-371.046355 0-512.549624l195.966039-195.866107c33.277252-33.277252 87.340295-33.277252 120.617546 0l195.966039 195.966039c141.503269 141.503269 141.503269 371.046355 0 512.549624-141.603201 141.503269-371.046355 141.503269-512.549624-0.099932zM511.650717 575.519079c35.275886 0 63.95628-28.680394 63.95628-63.95628s-28.680394-63.95628-63.95628-63.95628-63.95628 28.680394-63.95628 63.95628 28.680394 63.95628 63.95628 63.95628m0 42.67083c-58.859764 0-106.62711-47.767347-106.62711-106.62711s47.767347-106.62711 106.62711-106.627111S618.277828 452.703035 618.277828 511.562799 570.510481 618.189909 511.650717 618.189909z"  horiz-adv-x="1024" />

    


  </font>
</defs>
</svg>
